<svg xmlns="http://www.w3.org/2000/svg" width="1200" height="630" viewBox="0 0 1200 630">
  <defs>
    <radialGradient id="glow" cx="50%" cy="50%" r="50%">
      <stop offset="0%" stop-color="#ffffff" stop-opacity="0.3"/>
      <stop offset="100%" stop-color="#050510" stop-opacity="0"/>
    </radialGradient>
    <radialGradient id="teal" cx="50%" cy="50%" r="50%">
      <stop offset="0%" stop-color="#4ecdc4" stop-opacity="0.4"/>
      <stop offset="100%" stop-color="#050510" stop-opacity="0"/>
    </radialGradient>
    <radialGradient id="coral" cx="50%" cy="50%" r="50%">
      <stop offset="0%" stop-color="#e06c75" stop-opacity="0.3"/>
      <stop offset="100%" stop-color="#050510" stop-opacity="0"/>
    </radialGradient>
    <radialGradient id="amber" cx="50%" cy="50%" r="50%">
      <stop offset="0%" stop-color="#e8a849" stop-opacity="0.35"/>
      <stop offset="100%" stop-color="#050510" stop-opacity="0"/>
    </radialGradient>
  </defs>
  <rect width="1200" height="630" fill="#050510"/>
  <!-- Metachain core -->
  <circle cx="600" cy="280" r="200" fill="url(#glow)"/>
  <circle cx="600" cy="280" r="30" fill="#ffffff" opacity="0.8"/>
  <circle cx="600" cy="280" r="45" fill="none" stroke="#ffffff" stroke-width="0.5" opacity="0.2"/>
  <!-- Shard clusters -->
  <circle cx="350" cy="230" r="120" fill="url(#teal)"/>
  <circle cx="850" cy="230" r="120" fill="url(#coral)"/>
  <circle cx="600" cy="430" r="140" fill="url(#amber)"/>
  <!-- Star dots -->
  <circle cx="894" cy="20" r="0.7" fill="#ffffff" opacity="0.54"/><circle cx="684" cy="411" r="1.2" fill="#ffffff" opacity="0.39"/><circle cx="1002" cy="524" r="0.7" fill="#ffffff" opacity="0.39"/><circle cx="171" cy="232" r="0.9" fill="#ffffff" opacity="0.62"/><circle cx="387" cy="94" r="0.8" fill="#ffffff" opacity="0.28"/><circle cx="1000" cy="242" r="0.8" fill="#ffffff" opacity="0.45"/><circle cx="759" cy="589" r="1.4" fill="#ffffff" opacity="0.55"/><circle cx="1045" cy="37" r="1.6" fill="#ffffff" opacity="0.39"/><circle cx="352" cy="464" r="1.4" fill="#ffffff" opacity="0.49"/><circle cx="797" cy="211" r="1.8" fill="#ffffff" opacity="0.22"/><circle cx="726" cy="450" r="1.7" fill="#ffffff" opacity="0.21"/><circle cx="720" cy="301" r="1.2" fill="#ffffff" opacity="0.40"/><circle cx="890" cy="569" r="1.9" fill="#ffffff" opacity="0.43"/><circle cx="462" cy="154" r="0.7" fill="#ffffff" opacity="0.65"/><circle cx="451" cy="29" r="1.4" fill="#ffffff" opacity="0.65"/><circle cx="1198" cy="239" r="1.0" fill="#ffffff" opacity="0.66"/><circle cx="109" cy="380" r="1.1" fill="#ffffff" opacity="0.58"/><circle cx="554" cy="307" r="1.3" fill="#ffffff" opacity="0.59"/><circle cx="322" cy="206" r="1.6" fill="#ffffff" opacity="0.47"/><circle cx="761" cy="285" r="1.6" fill="#ffffff" opacity="0.49"/><circle cx="766" cy="554" r="0.6" fill="#ffffff" opacity="0.60"/><circle cx="344" cy="478" r="1.5" fill="#ffffff" opacity="0.50"/><circle cx="246" cy="481" r="1.5" fill="#ffffff" opacity="0.61"/><circle cx="223" cy="177" r="1.2" fill="#ffffff" opacity="0.55"/><circle cx="224" cy="377" r="0.6" fill="#ffffff" opacity="0.46"/><circle cx="655" cy="403" r="1.2" fill="#ffffff" opacity="0.21"/><circle cx="660" cy="452" r="1.1" fill="#ffffff" opacity="0.50"/><circle cx="534" cy="256" r="0.9" fill="#ffffff" opacity="0.31"/><circle cx="240" cy="288" r="0.7" fill="#ffffff" opacity="0.22"/><circle cx="591" cy="538" r="1.9" fill="#ffffff" opacity="0.28"/><circle cx="621" cy="193" r="1.9" fill="#ffffff" opacity="0.56"/><circle cx="1174" cy="21" r="0.9" fill="#ffffff" opacity="0.69"/><circle cx="432" cy="196" r="1.8" fill="#ffffff" opacity="0.62"/><circle cx="297" cy="502" r="0.6" fill="#ffffff" opacity="0.35"/><circle cx="828" cy="571" r="1.4" fill="#ffffff" opacity="0.41"/><circle cx="714" cy="376" r="0.9" fill="#ffffff" opacity="0.58"/><circle cx="949" cy="422" r="0.9" fill="#ffffff" opacity="0.59"/><circle cx="425" cy="456" r="0.8" fill="#ffffff" opacity="0.59"/><circle cx="926" cy="71" r="0.8" fill="#ffffff" opacity="0.66"/><circle cx="52" cy="381" r="0.5" fill="#ffffff" opacity="0.66"/><circle cx="286" cy="258" r="0.9" fill="#ffffff" opacity="0.25"/><circle cx="827" cy="500" r="1.9" fill="#ffffff" opacity="0.52"/><circle cx="650" cy="328" r="1.0" fill="#ffffff" opacity="0.37"/><circle cx="718" cy="262" r="0.8" fill="#ffffff" opacity="0.36"/><circle cx="525" cy="298" r="1.0" fill="#ffffff" opacity="0.31"/><circle cx="1030" cy="557" r="1.7" fill="#ffffff" opacity="0.52"/><circle cx="74" cy="507" r="1.9" fill="#ffffff" opacity="0.48"/><circle cx="1122" cy="423" r="1.2" fill="#ffffff" opacity="0.27"/><circle cx="512" cy="371" r="1.8" fill="#ffffff" opacity="0.44"/><circle cx="343" cy="567" r="1.0" fill="#ffffff" opacity="0.67"/><circle cx="824" cy="11" r="1.1" fill="#ffffff" opacity="0.70"/><circle cx="106" cy="587" r="1.3" fill="#ffffff" opacity="0.31"/><circle cx="939" cy="477" r="1.0" fill="#ffffff" opacity="0.60"/><circle cx="133" cy="339" r="1.5" fill="#ffffff" opacity="0.52"/><circle cx="0" cy="202" r="1.2" fill="#ffffff" opacity="0.68"/><circle cx="1126" cy="513" r="1.0" fill="#ffffff" opacity="0.69"/><circle cx="747" cy="2" r="1.4" fill="#ffffff" opacity="0.55"/><circle cx="996" cy="301" r="0.7" fill="#ffffff" opacity="0.59"/><circle cx="598" cy="444" r="0.7" fill="#ffffff" opacity="0.59"/><circle cx="408" cy="627" r="1.1" fill="#ffffff" opacity="0.46"/><circle cx="503" cy="62" r="1.3" fill="#ffffff" opacity="0.61"/><circle cx="1044" cy="61" r="1.6" fill="#ffffff" opacity="0.52"/><circle cx="31" cy="517" r="0.7" fill="#ffffff" opacity="0.59"/><circle cx="948" cy="530" r="1.6" fill="#ffffff" opacity="0.31"/><circle cx="1023" cy="273" r="2.0" fill="#ffffff" opacity="0.70"/><circle cx="622" cy="65" r="1.8" fill="#ffffff" opacity="0.22"/><circle cx="363" cy="491" r="1.7" fill="#ffffff" opacity="0.40"/><circle cx="463" cy="16" r="1.6" fill="#ffffff" opacity="0.26"/><circle cx="61" cy="527" r="1.8" fill="#ffffff" opacity="0.40"/><circle cx="1092" cy="53" r="1.3" fill="#ffffff" opacity="0.25"/><circle cx="615" cy="0" r="0.7" fill="#ffffff" opacity="0.36"/><circle cx="52" cy="235" r="1.4" fill="#ffffff" opacity="0.31"/><circle cx="19" cy="280" r="1.2" fill="#ffffff" opacity="0.27"/><circle cx="245" cy="598" r="0.9" fill="#ffffff" opacity="0.23"/><circle cx="451" cy="58" r="1.2" fill="#ffffff" opacity="0.43"/><circle cx="1133" cy="159" r="0.6" fill="#ffffff" opacity="0.60"/><circle cx="1180" cy="120" r="1.8" fill="#ffffff" opacity="0.38"/><circle cx="100" cy="76" r="0.5" fill="#ffffff" opacity="0.44"/><circle cx="893" cy="468" r="0.9" fill="#ffffff" opacity="0.51"/><circle cx="549" cy="502" r="1.1" fill="#ffffff" opacity="0.62"/><circle cx="1115" cy="144" r="0.9" fill="#ffffff" opacity="0.29"/><circle cx="168" cy="361" r="1.6" fill="#ffffff" opacity="0.48"/><circle cx="119" cy="70" r="0.9" fill="#ffffff" opacity="0.30"/><circle cx="68" cy="300" r="0.5" fill="#ffffff" opacity="0.31"/><circle cx="985" cy="293" r="0.8" fill="#ffffff" opacity="0.62"/><circle cx="161" cy="30" r="1.9" fill="#ffffff" opacity="0.27"/><circle cx="868" cy="343" r="1.9" fill="#ffffff" opacity="0.26"/><circle cx="300" cy="526" r="1.5" fill="#ffffff" opacity="0.47"/><circle cx="787" cy="584" r="1.5" fill="#ffffff" opacity="0.34"/><circle cx="882" cy="239" r="1.7" fill="#ffffff" opacity="0.55"/><circle cx="661" cy="362" r="0.8" fill="#ffffff" opacity="0.60"/><circle cx="297" cy="289" r="0.5" fill="#ffffff" opacity="0.27"/><circle cx="303" cy="355" r="1.1" fill="#ffffff" opacity="0.52"/><circle cx="810" cy="236" r="0.7" fill="#ffffff" opacity="0.64"/><circle cx="921" cy="377" r="1.3" fill="#ffffff" opacity="0.48"/><circle cx="1112" cy="3" r="1.6" fill="#ffffff" opacity="0.23"/><circle cx="555" cy="494" r="0.6" fill="#ffffff" opacity="0.45"/><circle cx="132" cy="242" r="0.6" fill="#ffffff" opacity="0.48"/><circle cx="55" cy="621" r="2.0" fill="#ffffff" opacity="0.55"/><circle cx="519" cy="263" r="1.7" fill="#ffffff" opacity="0.25"/><circle cx="955" cy="22" r="1.3" fill="#ffffff" opacity="0.52"/><circle cx="97" cy="552" r="0.6" fill="#ffffff" opacity="0.40"/><circle cx="400" cy="560" r="1.6" fill="#ffffff" opacity="0.37"/><circle cx="1028" cy="358" r="1.0" fill="#ffffff" opacity="0.68"/><circle cx="483" cy="223" r="0.7" fill="#ffffff" opacity="0.33"/><circle cx="76" cy="437" r="1.9" fill="#ffffff" opacity="0.66"/><circle cx="359" cy="320" r="1.8" fill="#ffffff" opacity="0.33"/><circle cx="680" cy="404" r="1.7" fill="#ffffff" opacity="0.21"/><circle cx="129" cy="272" r="0.6" fill="#ffffff" opacity="0.56"/><circle cx="1111" cy="128" r="1.0" fill="#ffffff" opacity="0.52"/><circle cx="259" cy="502" r="1.9" fill="#ffffff" opacity="0.40"/><circle cx="785" cy="590" r="1.3" fill="#ffffff" opacity="0.40"/><circle cx="899" cy="458" r="0.6" fill="#ffffff" opacity="0.34"/><circle cx="333" cy="247" r="1.6" fill="#ffffff" opacity="0.64"/><circle cx="171" cy="198" r="1.0" fill="#ffffff" opacity="0.50"/><circle cx="7" cy="497" r="0.9" fill="#ffffff" opacity="0.67"/><circle cx="201" cy="217" r="1.1" fill="#ffffff" opacity="0.22"/><circle cx="811" cy="560" r="1.1" fill="#ffffff" opacity="0.47"/><circle cx="966" cy="325" r="1.8" fill="#ffffff" opacity="0.39"/><circle cx="750" cy="247" r="0.7" fill="#ffffff" opacity="0.56"/><circle cx="982" cy="330" r="1.0" fill="#ffffff" opacity="0.54"/><circle cx="488" cy="311" r="1.0" fill="#ffffff" opacity="0.49"/><circle cx="144" cy="269" r="1.5" fill="#ffffff" opacity="0.44"/><circle cx="146" cy="174" r="0.8" fill="#ffffff" opacity="0.37"/><circle cx="18" cy="606" r="1.2" fill="#ffffff" opacity="0.62"/><circle cx="1093" cy="53" r="1.9" fill="#ffffff" opacity="0.67"/><circle cx="366" cy="492" r="0.9" fill="#ffffff" opacity="0.20"/><circle cx="159" cy="366" r="1.6" fill="#ffffff" opacity="0.63"/><circle cx="337" cy="163" r="1.8" fill="#ffffff" opacity="0.23"/><circle cx="444" cy="268" r="1.7" fill="#ffffff" opacity="0.40"/><circle cx="631" cy="458" r="1.5" fill="#ffffff" opacity="0.35"/><circle cx="722" cy="556" r="1.7" fill="#ffffff" opacity="0.46"/><circle cx="1186" cy="614" r="1.7" fill="#ffffff" opacity="0.34"/><circle cx="368" cy="307" r="1.4" fill="#ffffff" opacity="0.60"/><circle cx="171" cy="24" r="0.7" fill="#ffffff" opacity="0.33"/><circle cx="360" cy="487" r="2.0" fill="#ffffff" opacity="0.44"/><circle cx="797" cy="427" r="1.1" fill="#ffffff" opacity="0.41"/><circle cx="249" cy="61" r="1.4" fill="#ffffff" opacity="0.70"/><circle cx="796" cy="333" r="0.9" fill="#ffffff" opacity="0.64"/><circle cx="831" cy="43" r="1.7" fill="#ffffff" opacity="0.59"/><circle cx="575" cy="145" r="0.9" fill="#ffffff" opacity="0.23"/><circle cx="65" cy="127" r="1.0" fill="#ffffff" opacity="0.45"/><circle cx="853" cy="106" r="1.5" fill="#ffffff" opacity="0.28"/><circle cx="674" cy="36" r="1.2" fill="#ffffff" opacity="0.46"/><circle cx="119" cy="258" r="0.8" fill="#ffffff" opacity="0.40"/><circle cx="363" cy="138" r="0.8" fill="#ffffff" opacity="0.65"/><circle cx="932" cy="581" r="1.2" fill="#ffffff" opacity="0.24"/><circle cx="1090" cy="240" r="1.0" fill="#ffffff" opacity="0.36"/><circle cx="964" cy="332" r="1.9" fill="#ffffff" opacity="0.66"/><circle cx="1141" cy="78" r="1.7" fill="#ffffff" opacity="0.69"/><circle cx="703" cy="310" r="1.2" fill="#ffffff" opacity="0.39"/><circle cx="758" cy="286" r="1.5" fill="#ffffff" opacity="0.51"/><circle cx="486" cy="430" r="1.7" fill="#ffffff" opacity="0.51"/><circle cx="761" cy="387" r="1.3" fill="#ffffff" opacity="0.56"/><circle cx="366" cy="81" r="0.9" fill="#ffffff" opacity="0.41"/><circle cx="885" cy="538" r="1.7" fill="#ffffff" opacity="0.67"/><circle cx="362" cy="481" r="1.3" fill="#ffffff" opacity="0.39"/><circle cx="393" cy="366" r="0.9" fill="#ffffff" opacity="0.60"/><circle cx="171" cy="240" r="1.9" fill="#ffffff" opacity="0.40"/><circle cx="359" cy="408" r="0.7" fill="#ffffff" opacity="0.55"/><circle cx="880" cy="609" r="1.9" fill="#ffffff" opacity="0.34"/><circle cx="102" cy="327" r="0.9" fill="#ffffff" opacity="0.48"/><circle cx="325" cy="619" r="1.4" fill="#ffffff" opacity="0.35"/><circle cx="526" cy="138" r="1.9" fill="#ffffff" opacity="0.30"/><circle cx="586" cy="302" r="1.8" fill="#ffffff" opacity="0.22"/><circle cx="38" cy="197" r="1.2" fill="#ffffff" opacity="0.66"/><circle cx="255" cy="300" r="1.9" fill="#ffffff" opacity="0.52"/><circle cx="348" cy="449" r="1.9" fill="#ffffff" opacity="0.22"/><circle cx="110" cy="262" r="0.6" fill="#ffffff" opacity="0.48"/><circle cx="643" cy="450" r="1.4" fill="#ffffff" opacity="0.42"/><circle cx="59" cy="44" r="1.3" fill="#ffffff" opacity="0.65"/><circle cx="1185" cy="540" r="1.0" fill="#ffffff" opacity="0.44"/><circle cx="1163" cy="616" r="1.5" fill="#ffffff" opacity="0.30"/><circle cx="494" cy="436" r="0.9" fill="#ffffff" opacity="0.44"/><circle cx="700" cy="505" r="0.8" fill="#ffffff" opacity="0.68"/><circle cx="1015" cy="252" r="0.5" fill="#ffffff" opacity="0.36"/><circle cx="810" cy="296" r="0.6" fill="#ffffff" opacity="0.38"/><circle cx="896" cy="80" r="0.6" fill="#ffffff" opacity="0.38"/><circle cx="1097" cy="332" r="1.6" fill="#ffffff" opacity="0.56"/><circle cx="443" cy="185" r="1.6" fill="#ffffff" opacity="0.65"/><circle cx="632" cy="567" r="0.7" fill="#ffffff" opacity="0.22"/><circle cx="110" cy="389" r="1.6" fill="#ffffff" opacity="0.49"/><circle cx="434" cy="349" r="1.1" fill="#ffffff" opacity="0.45"/><circle cx="592" cy="440" r="1.5" fill="#ffffff" opacity="0.49"/><circle cx="115" cy="325" r="1.2" fill="#ffffff" opacity="0.68"/><circle cx="1085" cy="441" r="1.0" fill="#ffffff" opacity="0.59"/><circle cx="582" cy="146" r="1.7" fill="#ffffff" opacity="0.54"/><circle cx="132" cy="332" r="1.4" fill="#ffffff" opacity="0.36"/><circle cx="412" cy="315" r="1.8" fill="#ffffff" opacity="0.66"/><circle cx="1086" cy="122" r="1.4" fill="#ffffff" opacity="0.29"/><circle cx="353" cy="618" r="1.8" fill="#ffffff" opacity="0.46"/><circle cx="638" cy="571" r="1.5" fill="#ffffff" opacity="0.29"/><circle cx="429" cy="23" r="1.3" fill="#ffffff" opacity="0.66"/><circle cx="1006" cy="333" r="1.3" fill="#ffffff" opacity="0.38"/><circle cx="1113" cy="207" r="1.4" fill="#ffffff" opacity="0.62"/><circle cx="601" cy="168" r="0.7" fill="#ffffff" opacity="0.69"/><circle cx="71" cy="464" r="1.1" fill="#ffffff" opacity="0.21"/><circle cx="1132" cy="222" r="1.5" fill="#ffffff" opacity="0.51"/><circle cx="1102" cy="223" r="1.0" fill="#ffffff" opacity="0.58"/><circle cx="1168" cy="279" r="0.9" fill="#ffffff" opacity="0.47"/>
  <!-- Title text -->
  <text x="600" y="560" text-anchor="middle" font-family="SF Mono, monospace" font-size="16" fill="rgba(255,255,255,0.5)" letter-spacing="3">GALAXY OF NODES</text>
  <text x="600" y="590" text-anchor="middle" font-family="SF Mono, monospace" font-size="11" fill="rgba(255,255,255,0.25)" letter-spacing="2">MULTIVERSX NETWORK VISUALIZATION</text>
</svg>